RBDS026runT25_grf
version=1
nRows=12
nColumns=19
inDegrees=no
endheader
time	ground_force_r_vx	ground_force_r_vy	ground_force_r_vz	ground_force_r_px	ground_force_r_py	ground_force_r_pz	ground_force_r_mx	ground_force_r_my	ground_force_r_mz	ground_force_l_vx	ground_force_l_vy	ground_force_l_vz	ground_force_l_px	ground_force_l_py	ground_force_l_pz	ground_force_l_mx	ground_force_l_my	ground_force_l_mz
      7.49900000	      0.00000000	      0.00000000	      0.00000000	      0.00000000	      0.00000000	      0.00000000	      0.00000000	      0.00000000	      0.00000000	    136.71934262	    560.04095619	    -16.47487815	      1.98136833	      0.00000000	      0.97247480	     -0.00000000	      4.85434650	      0.00000000
      7.50000000	      0.00000000	      0.00000000	      0.00000000	      0.00000000	      0.00000000	      0.00000000	      0.00000000	      0.00000000	      0.00000000	    135.50377225	    546.07793974	    -16.57475096	      1.97954966	      0.00000000	      0.97253982	     -0.00000000	      4.70267962	      0.00000000
      7.50100000	      0.00000000	      0.00000000	      0.00000000	      0.00000000	      0.00000000	      0.00000000	      0.00000000	      0.00000000	      0.00000000	    134.01772575	    532.49790051	    -16.54414435	      1.97783472	      0.00000000	      0.97260477	     -0.00000000	      4.56121815	      0.00000000
      7.50200000	      0.00000000	      0.00000000	      0.00000000	      0.00000000	      0.00000000	      0.00000000	      0.00000000	      0.00000000	      0.00000000	    132.53167925	    518.91786127	    -16.51353775	      1.97611979	      0.00000000	      0.97266972	     -0.00000000	      4.41975669	      0.00000000
      7.50300000	      0.00000000	      0.00000000	      0.00000000	      0.00000000	      0.00000000	      0.00000000	      0.00000000	      0.00000000	      0.00000000	    131.04563274	    505.33782203	    -16.48293115	      1.97440485	      0.00000000	      0.97273466	     -0.00000000	      4.27829522	      0.00000000
      7.50400000	      0.00000000	      0.00000000	      0.00000000	      0.00000000	      0.00000000	      0.00000000	      0.00000000	      0.00000000	      0.00000000	    129.39927972	    492.04909629	    -16.37155210	      1.97276500	      0.00000000	      0.97280004	     -0.00000000	      4.14453814	      0.00000000
      7.50500000	      0.00000000	      0.00000000	      0.00000000	      0.00000000	      0.00000000	      0.00000000	      0.00000000	      0.00000000	      0.00000000	    127.67277343	    478.90602730	    -16.21978683	      1.97116269	      0.00000000	      0.97286564	     -0.00000000	      4.01463325	      0.00000000
      7.50600000	      0.00000000	      0.00000000	      0.00000000	      0.00000000	      0.00000000	      0.00000000	      0.00000000	      0.00000000	      0.00000000	    125.94626714	    465.76295830	    -16.06802157	      1.96956038	      0.00000000	      0.97293124	     -0.00000000	      3.88472836	      0.00000000
      7.50700000	      0.00000000	      0.00000000	      0.00000000	      0.00000000	      0.00000000	      0.00000000	      0.00000000	      0.00000000	      0.00000000	    124.15067680	    452.78250046	    -15.87953537	      1.96799812	      0.00000000	      0.97299730	     -0.00000000	      3.75903764	      0.00000000
      7.50800000	      0.00000000	      0.00000000	      0.00000000	      0.00000000	      0.00000000	      0.00000000	      0.00000000	      0.00000000	      0.00000000	    122.21691834	    440.12726490	    -15.61760733	      1.96651594	      0.00000000	      0.97306429	     -0.00000000	      3.64177525	      0.00000000
      7.50900000	      0.00000000	      0.00000000	      0.00000000	      0.00000000	      0.00000000	      0.00000000	      0.00000000	      0.00000000	      0.00000000	    120.28315989	    427.47202935	    -15.35567928	      1.96503376	      0.00000000	      0.97313128	     -0.00000000	      3.52451287	      0.00000000
      7.51000000	      0.00000000	      0.00000000	      0.00000000	      0.00000000	      0.00000000	      0.00000000	      0.00000000	      0.00000000	      0.00000000	    118.34940144	    414.81679380	    -15.09375124	      1.96355158	      0.00000000	      0.97319827	     -0.00000000	      3.40725048	      0.00000000
